<?xml version="1.0" encoding="UTF-8" standalone="no"?>
<!DOCTYPE svg PUBLIC "-//W3C//DTD SVG 1.1//EN"
 "http://www.w3.org/Graphics/SVG/1.1/DTD/svg11.dtd">
<!-- Generated by graphviz version 2.40.1 (20161225.0304)
 -->
<!-- Title: %3 Pages: 1 -->
<svg width="648pt" height="719pt"
 viewBox="0.00 0.00 648.00 718.97" xmlns="http://www.w3.org/2000/svg" xmlns:xlink="http://www.w3.org/1999/xlink">
<g id="graph0" class="graph" transform="scale(1 1) rotate(0) translate(4 714.9689)">
<title>%3</title>
<polygon fill="#ffffff" stroke="transparent" points="-4,4 -4,-714.9689 643.9965,-714.9689 643.9965,4 -4,4"/>
<!-- node4 -->
<g id="node1" class="node">
<title>node4</title>
<ellipse fill="#ffb6c1" stroke="#ffb6c1" cx="19.4983" cy="-391.4844" rx="18" ry="18"/>
<text text-anchor="middle" x="19.4983" y="-387.7844" font-family="Times,serif" font-size="14.00" fill="#000000">4</text>
</g>
<!-- node11 -->
<g id="node2" class="node">
<title>node11</title>
<ellipse fill="#ffb6c1" stroke="#ffb6c1" cx="249.4983" cy="-91.4983" rx="19.4965" ry="19.4965"/>
<text text-anchor="middle" x="249.4983" y="-87.7983" font-family="Times,serif" font-size="14.00" fill="#000000">11</text>
</g>
<!-- node9 -->
<g id="node12" class="node">
<title>node9</title>
<ellipse fill="#c0c0c0" stroke="#c0c0c0" cx="276.4983" cy="-18" rx="18" ry="18"/>
<text text-anchor="middle" x="276.4983" y="-14.3" font-family="Times,serif" font-size="14.00" fill="#000000">9</text>
</g>
<!-- node11&#45;&gt;node9 -->
<g id="edge27" class="edge">
<title>node11&#45;&gt;node9</title>
<path fill="none" stroke="#000000" d="M256.3115,-72.9516C259.432,-64.457 263.1902,-54.2265 266.6136,-44.9076"/>
<polygon fill="#000000" stroke="#000000" points="269.9879,-45.8721 270.1509,-35.2785 263.4173,-43.4583 269.9879,-45.8721"/>
</g>
<!-- node19 -->
<g id="node3" class="node">
<title>node19</title>
<ellipse fill="#ffb6c1" stroke="#ffb6c1" cx="19.4983" cy="-466.481" rx="19.4965" ry="19.4965"/>
<text text-anchor="middle" x="19.4983" y="-462.781" font-family="Times,serif" font-size="14.00" fill="#000000">19</text>
</g>
<!-- node19&#45;&gt;node4 -->
<g id="edge12" class="edge">
<title>node19&#45;&gt;node4</title>
<path fill="none" stroke="#000000" d="M19.4983,-446.7765C19.4983,-438.4792 19.4983,-428.6688 19.4983,-419.6322"/>
<polygon fill="#000000" stroke="#000000" points="22.9984,-419.5165 19.4983,-409.5165 15.9984,-419.5166 22.9984,-419.5165"/>
</g>
<!-- node14 -->
<g id="node15" class="node">
<title>node14</title>
<ellipse fill="#c0c0c0" stroke="#c0c0c0" cx="76.4983" cy="-391.4844" rx="19.4965" ry="19.4965"/>
<text text-anchor="middle" x="76.4983" y="-387.7844" font-family="Times,serif" font-size="14.00" fill="#000000">14</text>
</g>
<!-- node19&#45;&gt;node14 -->
<g id="edge13" class="edge">
<title>node19&#45;&gt;node14</title>
<path fill="none" stroke="#000000" d="M31.3087,-450.9416C39.1282,-440.6533 49.5356,-426.9599 58.3917,-415.3078"/>
<polygon fill="#000000" stroke="#000000" points="61.2423,-417.3413 64.5069,-407.2619 55.6693,-413.1055 61.2423,-417.3413"/>
</g>
<!-- node3 -->
<g id="node4" class="node">
<title>node3</title>
<ellipse fill="#ffd700" stroke="#ffd700" cx="303.4983" cy="-316.4879" rx="18" ry="18"/>
<text text-anchor="middle" x="303.4983" y="-312.7879" font-family="Times,serif" font-size="14.00" fill="#000000">3</text>
</g>
<!-- node32 -->
<g id="node20" class="node">
<title>node32</title>
<ellipse fill="#c0c0c0" stroke="#c0c0c0" cx="303.4983" cy="-241.4913" rx="19.4965" ry="19.4965"/>
<text text-anchor="middle" x="303.4983" y="-237.7913" font-family="Times,serif" font-size="14.00" fill="#000000">32</text>
</g>
<!-- node3&#45;&gt;node32 -->
<g id="edge17" class="edge">
<title>node3&#45;&gt;node32</title>
<path fill="none" stroke="#000000" d="M303.4983,-298.3333C303.4983,-290.2322 303.4983,-280.4724 303.4983,-271.3439"/>
<polygon fill="#000000" stroke="#000000" points="306.9984,-271.055 303.4983,-261.055 299.9984,-271.0551 306.9984,-271.055"/>
</g>
<!-- node23 -->
<g id="node33" class="node">
<title>node23</title>
<ellipse fill="#c0c0c0" stroke="#c0c0c0" cx="360.4983" cy="-241.4913" rx="19.4965" ry="19.4965"/>
<text text-anchor="middle" x="360.4983" y="-237.7913" font-family="Times,serif" font-size="14.00" fill="#000000">23</text>
</g>
<!-- node3&#45;&gt;node23 -->
<g id="edge18" class="edge">
<title>node3&#45;&gt;node23</title>
<path fill="none" stroke="#000000" d="M314.4884,-302.0278C322.3502,-291.6839 333.1141,-277.5214 342.2542,-265.4956"/>
<polygon fill="#000000" stroke="#000000" points="345.2934,-267.281 348.5579,-257.2017 339.7203,-263.0453 345.2934,-267.281"/>
</g>
<!-- node21 -->
<g id="node5" class="node">
<title>node21</title>
<ellipse fill="#ffb6c1" stroke="#ffb6c1" cx="257.4983" cy="-691.4706" rx="19.4965" ry="19.4965"/>
<text text-anchor="middle" x="257.4983" y="-687.7706" font-family="Times,serif" font-size="14.00" fill="#000000">21</text>
</g>
<!-- node12 -->
<g id="node9" class="node">
<title>node12</title>
<ellipse fill="#ffb6c1" stroke="#ffb6c1" cx="249.4983" cy="-616.474" rx="19.4965" ry="19.4965"/>
<text text-anchor="middle" x="249.4983" y="-612.774" font-family="Times,serif" font-size="14.00" fill="#000000">12</text>
</g>
<!-- node21&#45;&gt;node12 -->
<g id="edge16" class="edge">
<title>node21&#45;&gt;node12</title>
<path fill="none" stroke="#000000" d="M255.3964,-671.7661C254.5604,-663.9293 253.5804,-654.7425 252.662,-646.1329"/>
<polygon fill="#000000" stroke="#000000" points="256.1272,-645.6192 251.5861,-636.0469 249.1667,-646.3618 256.1272,-645.6192"/>
</g>
<!-- node16 -->
<g id="node27" class="node">
<title>node16</title>
<ellipse fill="#c0c0c0" stroke="#c0c0c0" cx="382.4983" cy="-91.4983" rx="19.4965" ry="19.4965"/>
<text text-anchor="middle" x="382.4983" y="-87.7983" font-family="Times,serif" font-size="14.00" fill="#000000">16</text>
</g>
<!-- node21&#45;&gt;node16 -->
<g id="edge15" class="edge">
<title>node21&#45;&gt;node16</title>
<path fill="none" stroke="#000000" d="M273.5509,-680.0684C312.2468,-651.985 407.4983,-579.0417 407.4983,-541.4775 407.4983,-541.4775 407.4983,-541.4775 407.4983,-241.4913 407.4983,-198.9837 397.6083,-150.6107 390.2692,-120.5665"/>
<polygon fill="#000000" stroke="#000000" points="393.6324,-119.5887 387.8001,-110.7436 386.8436,-121.2952 393.6324,-119.5887"/>
</g>
<!-- node27 -->
<g id="node6" class="node">
<title>node27</title>
<ellipse fill="#ffb6c1" stroke="#ffb6c1" cx="318.4983" cy="-691.4706" rx="19.4965" ry="19.4965"/>
<text text-anchor="middle" x="318.4983" y="-687.7706" font-family="Times,serif" font-size="14.00" fill="#000000">27</text>
</g>
<!-- node31 -->
<g id="node7" class="node">
<title>node31</title>
<ellipse fill="#ffb6c1" stroke="#ffb6c1" cx="261.4983" cy="-466.481" rx="19.4965" ry="19.4965"/>
<text text-anchor="middle" x="261.4983" y="-462.781" font-family="Times,serif" font-size="14.00" fill="#000000">31</text>
</g>
<!-- node26 -->
<g id="node29" class="node">
<title>node26</title>
<ellipse fill="#c0c0c0" stroke="#c0c0c0" cx="246.4983" cy="-391.4844" rx="19.4965" ry="19.4965"/>
<text text-anchor="middle" x="246.4983" y="-387.7844" font-family="Times,serif" font-size="14.00" fill="#000000">26</text>
</g>
<!-- node31&#45;&gt;node26 -->
<g id="edge21" class="edge">
<title>node31&#45;&gt;node26</title>
<path fill="none" stroke="#000000" d="M257.6354,-447.1675C256.0257,-439.1195 254.1211,-429.5968 252.3464,-420.7235"/>
<polygon fill="#000000" stroke="#000000" points="255.7414,-419.8518 250.3481,-410.7325 248.8774,-421.2247 255.7414,-419.8518"/>
</g>
<!-- node33 -->
<g id="node8" class="node">
<title>node33</title>
<ellipse fill="#c0c0c0" stroke="#c0c0c0" cx="247.4983" cy="-316.4879" rx="19.4965" ry="19.4965"/>
<text text-anchor="middle" x="247.4983" y="-312.7879" font-family="Times,serif" font-size="14.00" fill="#000000">33</text>
</g>
<!-- node17 -->
<g id="node25" class="node">
<title>node17</title>
<ellipse fill="#ffb6c1" stroke="#ffb6c1" cx="70.4983" cy="-541.4775" rx="19.4965" ry="19.4965"/>
<text text-anchor="middle" x="70.4983" y="-537.7775" font-family="Times,serif" font-size="14.00" fill="#000000">17</text>
</g>
<!-- node12&#45;&gt;node17 -->
<g id="edge19" class="edge">
<title>node12&#45;&gt;node17</title>
<path fill="none" stroke="#000000" d="M231.3497,-608.8703C199.9901,-595.7313 135.4658,-568.6973 98.3777,-553.1583"/>
<polygon fill="#000000" stroke="#000000" points="99.2706,-549.7376 88.6948,-549.1014 96.5655,-556.1939 99.2706,-549.7376"/>
</g>
<!-- node13 -->
<g id="node10" class="node">
<title>node13</title>
<ellipse fill="#ffb6c1" stroke="#ffb6c1" cx="303.4983" cy="-391.4844" rx="19.4965" ry="19.4965"/>
<text text-anchor="middle" x="303.4983" y="-387.7844" font-family="Times,serif" font-size="14.00" fill="#000000">13</text>
</g>
<!-- node13&#45;&gt;node3 -->
<g id="edge10" class="edge">
<title>node13&#45;&gt;node3</title>
<path fill="none" stroke="#000000" d="M303.4983,-371.78C303.4983,-363.4827 303.4983,-353.6722 303.4983,-344.6356"/>
<polygon fill="#000000" stroke="#000000" points="306.9984,-344.52 303.4983,-334.52 299.9984,-344.52 306.9984,-344.52"/>
</g>
<!-- node13&#45;&gt;node33 -->
<g id="edge11" class="edge">
<title>node13&#45;&gt;node33</title>
<path fill="none" stroke="#000000" d="M291.6221,-375.5796C283.9979,-365.3691 273.9543,-351.9184 265.3756,-340.4296"/>
<polygon fill="#000000" stroke="#000000" points="267.9528,-338.0312 259.1653,-332.1126 262.344,-342.2194 267.9528,-338.0312"/>
</g>
<!-- node8 -->
<g id="node11" class="node">
<title>node8</title>
<ellipse fill="#c0c0c0" stroke="#c0c0c0" cx="304.4983" cy="-166.4948" rx="18" ry="18"/>
<text text-anchor="middle" x="304.4983" y="-162.7948" font-family="Times,serif" font-size="14.00" fill="#000000">8</text>
</g>
<!-- node7 -->
<g id="node18" class="node">
<title>node7</title>
<ellipse fill="#c0c0c0" stroke="#c0c0c0" cx="304.4983" cy="-91.4983" rx="18" ry="18"/>
<text text-anchor="middle" x="304.4983" y="-87.7983" font-family="Times,serif" font-size="14.00" fill="#000000">7</text>
</g>
<!-- node8&#45;&gt;node7 -->
<g id="edge29" class="edge">
<title>node8&#45;&gt;node7</title>
<path fill="none" stroke="#000000" d="M304.4983,-148.3402C304.4983,-139.8361 304.4983,-129.5041 304.4983,-119.9934"/>
<polygon fill="#000000" stroke="#000000" points="307.9984,-119.7456 304.4983,-109.7456 300.9984,-119.7456 307.9984,-119.7456"/>
</g>
<!-- node8&#45;&gt;node16 -->
<g id="edge28" class="edge">
<title>node8&#45;&gt;node16</title>
<path fill="none" stroke="#000000" d="M317.7299,-153.7727C329.612,-142.3481 347.2702,-125.3699 361.1489,-112.0256"/>
<polygon fill="#000000" stroke="#000000" points="363.6271,-114.4982 368.4098,-105.0443 358.7754,-109.4523 363.6271,-114.4982"/>
</g>
<!-- node30 -->
<g id="node13" class="node">
<title>node30</title>
<ellipse fill="#ffb6c1" stroke="#ffb6c1" cx="76.4983" cy="-466.481" rx="19.4965" ry="19.4965"/>
<text text-anchor="middle" x="76.4983" y="-462.781" font-family="Times,serif" font-size="14.00" fill="#000000">30</text>
</g>
<!-- node30&#45;&gt;node30 -->
<g id="edge26" class="edge">
<title>node30&#45;&gt;node30</title>
<path fill="none" stroke="#000000" d="M91.9055,-478.8621C102.9726,-482.8932 113.9965,-478.7661 113.9965,-466.481 113.9965,-458.0349 108.786,-453.4449 101.9332,-452.7108"/>
<polygon fill="#000000" stroke="#000000" points="101.3307,-449.2607 91.9055,-454.0998 102.2912,-456.1945 101.3307,-449.2607"/>
</g>
<!-- node30&#45;&gt;node14 -->
<g id="edge25" class="edge">
<title>node30&#45;&gt;node14</title>
<path fill="none" stroke="#000000" d="M76.4983,-446.7765C76.4983,-438.9396 76.4983,-429.7529 76.4983,-421.1433"/>
<polygon fill="#000000" stroke="#000000" points="79.9984,-421.0573 76.4983,-411.0573 72.9984,-421.0573 79.9984,-421.0573"/>
</g>
<!-- node25 -->
<g id="node14" class="node">
<title>node25</title>
<ellipse fill="#ffb6c1" stroke="#ffb6c1" cx="377.4983" cy="-691.4706" rx="19.4965" ry="19.4965"/>
<text text-anchor="middle" x="377.4983" y="-687.7706" font-family="Times,serif" font-size="14.00" fill="#000000">25</text>
</g>
<!-- node6 -->
<g id="node16" class="node">
<title>node6</title>
<ellipse fill="#ffb6c1" stroke="#ffb6c1" cx="433.4983" cy="-691.4706" rx="18" ry="18"/>
<text text-anchor="middle" x="433.4983" y="-687.7706" font-family="Times,serif" font-size="14.00" fill="#000000">6</text>
</g>
<!-- node6&#45;&gt;node6 -->
<g id="edge1" class="edge">
<title>node6&#45;&gt;node6</title>
<path fill="none" stroke="#000000" d="M447.1653,-703.3944C458.1545,-708.1639 469.4983,-704.1893 469.4983,-691.4706 469.4983,-682.7264 464.1366,-678.1153 457.2145,-677.6371"/>
<polygon fill="#000000" stroke="#000000" points="456.336,-674.2413 447.1653,-679.5468 457.6429,-681.1182 456.336,-674.2413"/>
</g>
<!-- node24 -->
<g id="node17" class="node">
<title>node24</title>
<ellipse fill="#ffb6c1" stroke="#ffb6c1" cx="164.4983" cy="-541.4775" rx="19.4965" ry="19.4965"/>
<text text-anchor="middle" x="164.4983" y="-537.7775" font-family="Times,serif" font-size="14.00" fill="#000000">24</text>
</g>
<!-- node18 -->
<g id="node23" class="node">
<title>node18</title>
<ellipse fill="#ffb6c1" stroke="#ffb6c1" cx="151.4983" cy="-466.481" rx="19.4965" ry="19.4965"/>
<text text-anchor="middle" x="151.4983" y="-462.781" font-family="Times,serif" font-size="14.00" fill="#000000">18</text>
</g>
<!-- node24&#45;&gt;node18 -->
<g id="edge3" class="edge">
<title>node24&#45;&gt;node18</title>
<path fill="none" stroke="#000000" d="M161.1504,-522.164C159.7554,-514.116 158.1047,-504.5934 156.5666,-495.72"/>
<polygon fill="#000000" stroke="#000000" points="159.9913,-494.9843 154.8347,-485.729 153.0942,-496.1799 159.9913,-494.9843"/>
</g>
<!-- node2 -->
<g id="node31" class="node">
<title>node2</title>
<ellipse fill="#ffd700" stroke="#ffd700" cx="206.4983" cy="-466.481" rx="18" ry="18"/>
<text text-anchor="middle" x="206.4983" y="-462.781" font-family="Times,serif" font-size="14.00" fill="#000000">2</text>
</g>
<!-- node24&#45;&gt;node2 -->
<g id="edge2" class="edge">
<title>node24&#45;&gt;node2</title>
<path fill="none" stroke="#000000" d="M174.0287,-524.4596C179.4947,-514.6993 186.4562,-502.2687 192.5304,-491.4225"/>
<polygon fill="#000000" stroke="#000000" points="195.7474,-492.841 197.5799,-482.4059 189.6399,-489.4207 195.7474,-492.841"/>
</g>
<!-- node7&#45;&gt;node9 -->
<g id="edge4" class="edge">
<title>node7&#45;&gt;node9</title>
<path fill="none" stroke="#000000" d="M298.0041,-74.4516C294.6115,-65.5462 290.384,-54.4493 286.5772,-44.4567"/>
<polygon fill="#000000" stroke="#000000" points="289.788,-43.0531 282.9572,-34.9543 283.2466,-45.5452 289.788,-43.0531"/>
</g>
<!-- node20 -->
<g id="node19" class="node">
<title>node20</title>
<ellipse fill="#c0c0c0" stroke="#c0c0c0" cx="360.4983" cy="-391.4844" rx="19.4965" ry="19.4965"/>
<text text-anchor="middle" x="360.4983" y="-387.7844" font-family="Times,serif" font-size="14.00" fill="#000000">20</text>
</g>
<!-- node32&#45;&gt;node8 -->
<g id="edge7" class="edge">
<title>node32&#45;&gt;node8</title>
<path fill="none" stroke="#000000" d="M303.761,-221.7869C303.8716,-213.4896 304.0025,-203.6791 304.1229,-194.6426"/>
<polygon fill="#000000" stroke="#000000" points="307.6241,-194.5727 304.2578,-184.5269 300.6247,-194.4793 307.6241,-194.5727"/>
</g>
<!-- node29 -->
<g id="node21" class="node">
<title>node29</title>
<ellipse fill="#ffb6c1" stroke="#ffb6c1" cx="247.4983" cy="-541.4775" rx="19.4965" ry="19.4965"/>
<text text-anchor="middle" x="247.4983" y="-537.7775" font-family="Times,serif" font-size="14.00" fill="#000000">29</text>
</g>
<!-- node29&#45;&gt;node31 -->
<g id="edge24" class="edge">
<title>node29&#45;&gt;node31</title>
<path fill="none" stroke="#000000" d="M251.1036,-522.164C252.606,-514.116 254.3836,-504.5934 256.0401,-495.72"/>
<polygon fill="#000000" stroke="#000000" points="259.5106,-496.2015 257.9051,-485.729 252.6294,-494.9169 259.5106,-496.2015"/>
</g>
<!-- node29&#45;&gt;node2 -->
<g id="edge23" class="edge">
<title>node29&#45;&gt;node2</title>
<path fill="none" stroke="#000000" d="M237.989,-524.0833C232.6831,-514.3777 225.9825,-502.1211 220.1274,-491.4112"/>
<polygon fill="#000000" stroke="#000000" points="223.1241,-489.5961 215.2561,-482.5006 216.982,-492.9539 223.1241,-489.5961"/>
</g>
<!-- node15 -->
<g id="node22" class="node">
<title>node15</title>
<ellipse fill="#ffb6c1" stroke="#ffb6c1" cx="506.4983" cy="-691.4706" rx="19.4965" ry="19.4965"/>
<text text-anchor="middle" x="506.4983" y="-687.7706" font-family="Times,serif" font-size="14.00" fill="#000000">15</text>
</g>
<!-- node22 -->
<g id="node24" class="node">
<title>node22</title>
<ellipse fill="#ffb6c1" stroke="#ffb6c1" cx="563.4983" cy="-691.4706" rx="19.4965" ry="19.4965"/>
<text text-anchor="middle" x="563.4983" y="-687.7706" font-family="Times,serif" font-size="14.00" fill="#000000">22</text>
</g>
<!-- node5 -->
<g id="node30" class="node">
<title>node5</title>
<ellipse fill="#ffb6c1" stroke="#ffb6c1" cx="563.4983" cy="-616.474" rx="18" ry="18"/>
<text text-anchor="middle" x="563.4983" y="-612.774" font-family="Times,serif" font-size="14.00" fill="#000000">5</text>
</g>
<!-- node22&#45;&gt;node5 -->
<g id="edge22" class="edge">
<title>node22&#45;&gt;node5</title>
<path fill="none" stroke="#000000" d="M563.4983,-671.7661C563.4983,-663.4688 563.4983,-653.6584 563.4983,-644.6218"/>
<polygon fill="#000000" stroke="#000000" points="566.9984,-644.5061 563.4983,-634.5062 559.9984,-644.5062 566.9984,-644.5061"/>
</g>
<!-- node17&#45;&gt;node19 -->
<g id="edge6" class="edge">
<title>node17&#45;&gt;node19</title>
<path fill="none" stroke="#000000" d="M59.432,-525.2044C52.6821,-515.2784 43.9202,-502.3939 36.3242,-491.2238"/>
<polygon fill="#000000" stroke="#000000" points="39.0604,-489.0233 30.5429,-482.7223 33.272,-492.9597 39.0604,-489.0233"/>
</g>
<!-- node10 -->
<g id="node26" class="node">
<title>node10</title>
<ellipse fill="#ffb6c1" stroke="#ffb6c1" cx="620.4983" cy="-691.4706" rx="19.4965" ry="19.4965"/>
<text text-anchor="middle" x="620.4983" y="-687.7706" font-family="Times,serif" font-size="14.00" fill="#000000">10</text>
</g>
<!-- node28 -->
<g id="node28" class="node">
<title>node28</title>
<ellipse fill="#c0c0c0" stroke="#c0c0c0" cx="360.4983" cy="-166.4948" rx="19.4965" ry="19.4965"/>
<text text-anchor="middle" x="360.4983" y="-162.7948" font-family="Times,serif" font-size="14.00" fill="#000000">28</text>
</g>
<!-- node26&#45;&gt;node33 -->
<g id="edge5" class="edge">
<title>node26&#45;&gt;node33</title>
<path fill="none" stroke="#000000" d="M246.761,-371.78C246.8655,-363.9431 246.988,-354.7564 247.1028,-346.1468"/>
<polygon fill="#000000" stroke="#000000" points="250.6035,-346.1066 247.2373,-336.0607 243.6042,-346.0132 250.6035,-346.1066"/>
</g>
<!-- node2&#45;&gt;node14 -->
<g id="edge14" class="edge">
<title>node2&#45;&gt;node14</title>
<path fill="none" stroke="#000000" d="M191.8849,-455.3958C187.9354,-452.5478 183.6137,-449.5619 179.4983,-446.9827 154.2737,-431.1741 124.1737,-415.2771 103.0475,-404.5739"/>
<polygon fill="#000000" stroke="#000000" points="104.5291,-401.4015 94.022,-400.0407 101.3872,-407.6568 104.5291,-401.4015"/>
</g>
<!-- node1 -->
<g id="node32" class="node">
<title>node1</title>
<ellipse fill="#ffd700" stroke="#ffd700" cx="345.4983" cy="-466.481" rx="18" ry="18"/>
<text text-anchor="middle" x="345.4983" y="-462.781" font-family="Times,serif" font-size="14.00" fill="#000000">1</text>
</g>
<!-- node1&#45;&gt;node20 -->
<g id="edge8" class="edge">
<title>node1&#45;&gt;node20</title>
<path fill="none" stroke="#000000" d="M349.0531,-448.7078C350.7327,-440.3101 352.7814,-430.0671 354.6788,-420.5806"/>
<polygon fill="#000000" stroke="#000000" points="358.1244,-421.1989 356.6537,-410.7066 351.2603,-419.8259 358.1244,-421.1989"/>
</g>
<!-- node1&#45;&gt;node26 -->
<g id="edge9" class="edge">
<title>node1&#45;&gt;node26</title>
<path fill="none" stroke="#000000" d="M330.8905,-455.415C314.9387,-443.3308 289.1506,-423.7953 270.274,-409.4956"/>
<polygon fill="#000000" stroke="#000000" points="272.2321,-406.588 262.1475,-403.3394 268.0052,-412.1677 272.2321,-406.588"/>
</g>
<!-- node23&#45;&gt;node28 -->
<g id="edge20" class="edge">
<title>node23&#45;&gt;node28</title>
<path fill="none" stroke="#000000" d="M360.4983,-221.7869C360.4983,-213.95 360.4983,-204.7633 360.4983,-196.1537"/>
<polygon fill="#000000" stroke="#000000" points="363.9984,-196.0676 360.4983,-186.0677 356.9984,-196.0677 363.9984,-196.0676"/>
</g>
</g>
</svg>
